<svg contentScriptType="application/ecmascript" contentStyleType="text/css" height="92px" preserveAspectRatio="none" style="width:140px;height:92px;" version="1.1" viewBox="0 0 140 92" width="140px" xmlns="http://www.w3.org/2000/svg" xmlns:xlink="http://www.w3.org/1999/xlink" zoomAndPan="magnify"><defs><filter height="300%" id="f13kgvyecgvkt0" width="300%" x="-1" y="-1"><feGaussianBlur result="blurOut" stdDeviation="2.0"/><feColorMatrix in="blurOut" result="blurOut2" type="matrix" values="0 0 0 0 0 0 0 0 0 0 0 0 0 0 0 0 0 0 .4 0"/><feOffset dx="4.0" dy="4.0" in="blurOut2" result="blurOut3"/><feBlend in="SourceGraphic" in2="blurOut3" mode="normal"/></filter></defs><g><!--class FizzBuzz--><rect fill="#FEFECE" filter="url(#f13kgvyecgvkt0)" height="73.9102" id="FizzBuzz" style="stroke: #A80036; stroke-width: 1.5;" width="123" x="6" y="8"/><ellipse cx="39" cy="24" fill="#ADD1B2" rx="11" ry="11" style="stroke: #A80036; stroke-width: 1.0;"/><path d="M41.4731,30.1431 Q40.8921,30.4419 40.2529,30.5913 Q39.6138,30.7407 38.9082,30.7407 Q36.4014,30.7407 35.0815,29.0889 Q33.7617,27.437 33.7617,24.3159 Q33.7617,21.1865 35.0815,19.5347 Q36.4014,17.8828 38.9082,17.8828 Q39.6138,17.8828 40.2612,18.0322 Q40.9087,18.1816 41.4731,18.4805 L41.4731,21.2031 Q40.8423,20.6221 40.2488,20.3523 Q39.6553,20.0825 39.0244,20.0825 Q37.6797,20.0825 36.9949,21.1492 Q36.3101,22.2158 36.3101,24.3159 Q36.3101,26.4077 36.9949,27.4744 Q37.6797,28.541 39.0244,28.541 Q39.6553,28.541 40.2488,28.2712 Q40.8423,28.0015 41.4731,27.4204 Z "/><text fill="#000000" font-family="sans-serif" font-size="12" lengthAdjust="spacingAndGlyphs" textLength="51" x="57" y="28.5352">FizzBuzz</text><line style="stroke: #A80036; stroke-width: 1.5;" x1="7" x2="128" y1="40" y2="40"/><line style="stroke: #A80036; stroke-width: 1.5;" x1="7" x2="128" y1="48" y2="48"/><ellipse cx="17" cy="59.9775" fill="#84BE84" rx="3" ry="3" style="stroke: #038048; stroke-width: 1.0;"/><text fill="#000000" font-family="sans-serif" font-size="11" lengthAdjust="spacingAndGlyphs" text-decoration="underline" textLength="97" x="26" y="62.6348">generate(number)</text><line style="stroke: #000000; stroke-width: 1.0;" x1="26" x2="123" y1="64.6348" y2="64.6348"/><ellipse cx="17" cy="72.9326" fill="#84BE84" rx="3" ry="3" style="stroke: #038048; stroke-width: 1.0;"/><text fill="#000000" font-family="sans-serif" font-size="11" lengthAdjust="spacingAndGlyphs" textLength="73" x="26" y="75.5898">iterate(count)</text><!--
@startuml
class FizzBuzz {
+ {static}generate(number)
+ iterate(count)
}

@enduml

PlantUML version 1.2018.10(Sun Aug 26 02:02:59 JST 2018)
(GPL source distribution)
Java Runtime: Java(TM) SE Runtime Environment
JVM: Java HotSpot(TM) 64-Bit Server VM
Java Version: 1.8.0_202-b08
Operating System: Mac OS X
OS Version: 10.14.3
Default Encoding: UTF-8
Language: ja
Country: JP
--></g></svg>