<svg contentScriptType="application/ecmascript" contentStyleType="text/css" height="310px" preserveAspectRatio="none" style="width:211px;height:310px;" version="1.1" viewBox="0 0 211 310" width="211px" xmlns="http://www.w3.org/2000/svg" xmlns:xlink="http://www.w3.org/1999/xlink" zoomAndPan="magnify"><defs><filter height="300%" id="fdrd9ndgo8mo1" width="300%" x="-1" y="-1"><feGaussianBlur result="blurOut" stdDeviation="2.0"/><feColorMatrix in="blurOut" result="blurOut2" type="matrix" values="0 0 0 0 0 0 0 0 0 0 0 0 0 0 0 0 0 0 .4 0"/><feOffset dx="4.0" dy="4.0" in="blurOut2" result="blurOut3"/><feBlend in="SourceGraphic" in2="blurOut3" mode="normal"/></filter></defs><g><rect fill="#FFFFFF" filter="url(#fdrd9ndgo8mo1)" height="80.6211" style="stroke: #A80036; stroke-width: 1.0;" width="10" x="104.5" y="117.7988"/><rect fill="#FFFFFF" filter="url(#fdrd9ndgo8mo1)" height="73.6211" style="stroke: #000000; stroke-width: 2.0;" width="187" x="13" y="132.7988"/><line style="stroke: #A80036; stroke-width: 1.0; stroke-dasharray: 5.0,5.0;" x1="41" x2="41" y1="86.4883" y2="223.4199"/><line style="stroke: #A80036; stroke-width: 1.0; stroke-dasharray: 5.0,5.0;" x1="109" x2="109" y1="86.4883" y2="223.4199"/><text fill="#000000" font-family="sans-serif" font-size="14" lengthAdjust="spacingAndGlyphs" textLength="31" x="23" y="83.5352">User</text><ellipse cx="41.5" cy="13" fill="#FEFECE" filter="url(#fdrd9ndgo8mo1)" rx="8" ry="8" style="stroke: #A80036; stroke-width: 2.0;"/><path d="M41.5,21 L41.5,48 M28.5,29 L54.5,29 M41.5,48 L28.5,63 M41.5,48 L54.5,63 " fill="none" filter="url(#fdrd9ndgo8mo1)" style="stroke: #A80036; stroke-width: 2.0;"/><text fill="#000000" font-family="sans-serif" font-size="14" lengthAdjust="spacingAndGlyphs" textLength="31" x="23" y="235.9551">User</text><ellipse cx="41.5" cy="248.9082" fill="#FEFECE" filter="url(#fdrd9ndgo8mo1)" rx="8" ry="8" style="stroke: #A80036; stroke-width: 2.0;"/><path d="M41.5,256.9082 L41.5,283.9082 M28.5,264.9082 L54.5,264.9082 M41.5,283.9082 L28.5,298.9082 M41.5,283.9082 L54.5,298.9082 " fill="none" filter="url(#fdrd9ndgo8mo1)" style="stroke: #A80036; stroke-width: 2.0;"/><rect fill="#FEFECE" filter="url(#fdrd9ndgo8mo1)" height="30.4883" style="stroke: #A80036; stroke-width: 1.5;" width="75" x="70" y="51"/><text fill="#000000" font-family="sans-serif" font-size="14" lengthAdjust="spacingAndGlyphs" textLength="61" x="77" y="71.5352">FizzBuzz</text><rect fill="#FEFECE" filter="url(#fdrd9ndgo8mo1)" height="30.4883" style="stroke: #A80036; stroke-width: 1.5;" width="75" x="70" y="222.4199"/><text fill="#000000" font-family="sans-serif" font-size="14" lengthAdjust="spacingAndGlyphs" textLength="61" x="77" y="242.9551">FizzBuzz</text><rect fill="#FFFFFF" filter="url(#fdrd9ndgo8mo1)" height="80.6211" style="stroke: #A80036; stroke-width: 1.0;" width="10" x="104.5" y="117.7988"/><polygon fill="#A80036" points="92.5,113.7988,102.5,117.7988,92.5,121.7988,96.5,117.7988" style="stroke: #A80036; stroke-width: 1.0;"/><line style="stroke: #A80036; stroke-width: 1.0;" x1="41.5" x2="98.5" y1="117.7988" y2="117.7988"/><text fill="#000000" font-family="sans-serif" font-size="13" lengthAdjust="spacingAndGlyphs" textLength="40" x="48.5" y="113.0566">iterate</text><path d="M13,132.7988 L87,132.7988 L87,139.7988 L77,149.7988 L13,149.7988 L13,132.7988 " fill="#EEEEEE" style="stroke: #000000; stroke-width: 1.0;"/><rect fill="none" height="73.6211" style="stroke: #000000; stroke-width: 2.0;" width="187" x="13" y="132.7988"/><text fill="#000000" font-family="sans-serif" font-size="13" font-weight="bold" lengthAdjust="spacingAndGlyphs" textLength="29" x="28" y="146.3672">loop</text><text fill="#000000" font-family="sans-serif" font-size="11" font-weight="bold" lengthAdjust="spacingAndGlyphs" textLength="93" x="102" y="145.4336">[for each iterate]</text><line style="stroke: #A80036; stroke-width: 1.0;" x1="114.5" x2="156.5" y1="171.4199" y2="171.4199"/><line style="stroke: #A80036; stroke-width: 1.0;" x1="156.5" x2="156.5" y1="171.4199" y2="184.4199"/><line style="stroke: #A80036; stroke-width: 1.0;" x1="115.5" x2="156.5" y1="184.4199" y2="184.4199"/><polygon fill="#A80036" points="125.5,180.4199,115.5,184.4199,125.5,188.4199,121.5,184.4199" style="stroke: #A80036; stroke-width: 1.0;"/><text fill="#000000" font-family="sans-serif" font-size="13" lengthAdjust="spacingAndGlyphs" textLength="54" x="121.5" y="166.6777">generate</text><polygon fill="#A80036" points="52.5,194.4199,42.5,198.4199,52.5,202.4199,48.5,198.4199" style="stroke: #A80036; stroke-width: 1.0;"/><line style="stroke: #A80036; stroke-width: 1.0;" x1="46.5" x2="108.5" y1="198.4199" y2="198.4199"/><!--
@startuml
actor User

User -> FizzBuzz: iterate
loop for each iterate
      activate FizzBuzz
      FizzBuzz -> FizzBuzz: generate
            User <- FizzBuzz
      deactivate FizzBuzz
end
@enduml

PlantUML version 1.2018.10(Sun Aug 26 02:02:59 JST 2018)
(GPL source distribution)
Java Runtime: Java(TM) SE Runtime Environment
JVM: Java HotSpot(TM) 64-Bit Server VM
Java Version: 1.8.0_202-b08
Operating System: Mac OS X
OS Version: 10.14.3
Default Encoding: UTF-8
Language: ja
Country: JP
--></g></svg>